<svg width="64" height="63" viewBox="0 0 64 63" fill="none" xmlns="http://www.w3.org/2000/svg">
<rect x="0.780273" y="0.11293" width="62.5247" height="62.5247" rx="5" fill="#F2635A"/>
<path opacity="0.3" d="M33.3394 12.6179C35.468 14.055 37.5435 15.1979 39.8007 16.1711C40.0239 17.532 40.1107 18.8748 40.1187 20.214C37.8481 21.4217 35.7133 22.7886 33.5745 24.104L33.0212 24.4444L33.2908 25.0308C34.2426 27.1134 35.2015 28.7212 36.9226 30.5405L37.3297 30.9725L37.837 30.6666C40.4266 29.1011 43.6856 27.6316 46.7406 26.4383L46.2046 25.0766C43.3153 26.2052 40.3059 27.6097 37.7109 29.1132C36.5018 27.7653 35.7219 26.4991 34.9848 24.968C38.3963 22.8589 41.7489 20.7742 45.5625 19.4323C47.3697 21.0277 48.5236 22.9781 49.6417 24.9764C48.988 26.9746 49.1237 29.1597 50.1597 31.0473C46.3445 31.0008 42.4638 31.2221 38.3273 31.8514L37.883 31.917L37.7426 32.3434C37.0476 34.4172 36.8167 36.6077 37.0888 38.8945L37.1663 39.5554L37.8312 39.5407C41.0125 39.473 44.1277 39.3731 47.1115 39.559C46.9832 40.8083 47.293 41.9864 47.7181 43.0878C46.6637 45.3246 45.5679 47.4611 43.9257 49.31C40.6847 47.8169 38.1485 46.8578 34.8213 45.9516C35.0889 44.8763 35.3646 43.8857 35.6928 43.3167C36.0951 42.6192 36.4944 42.2934 37.0946 42.121C38.295 41.7762 40.592 42.3007 44.39 43.6457L44.8802 42.2668C41.0394 40.9067 38.6209 40.159 36.6905 40.7134C35.9733 40.9194 35.3645 41.3407 34.879 41.9251C33.7413 41.3273 32.6475 40.6092 31.5765 39.8093C30.6074 36.2104 28.6479 33.4281 26.3441 31.023C26.9116 29.9634 27.3813 28.8909 27.959 27.84L28.2255 27.3566L27.8328 26.9675C26.005 25.1547 24.115 23.8202 22.1886 22.8538L21.5293 24.1639C23.1748 24.9892 24.7887 26.1948 26.3823 27.7027C25.4077 29.5766 24.6339 31.2687 23.2836 32.7834C20.3395 30.6576 17.3981 28.7557 14.1077 26.9102C15.2041 24.5219 16.5694 22.3365 18.5281 20.6824C21.0569 21.7311 23.4386 22.0453 25.8011 21.6456C26.9181 22.6841 28.1645 23.3879 29.6301 23.4746C31.9089 23.6096 34.4002 22.241 37.4186 18.9547L36.88 18.4613L36.8787 18.4591L36.8782 18.4596L36.3379 17.9647C33.4555 21.103 31.3321 22.1083 29.7159 22.0127C28.2619 21.9265 26.9649 20.841 25.657 19.2378C27.9209 16.7447 30.6968 14.5401 33.3393 12.618L33.3394 12.6179ZM49.375 32.5714C49.851 32.5732 50.3256 32.5791 50.7998 32.5889C50.6684 34.6492 50.3669 36.6086 49.6962 38.3676C46.0931 37.9115 42.3684 37.9789 38.6112 38.0643C38.492 36.3973 38.6311 34.7969 39.087 33.2669C42.6624 32.7523 46.0443 32.5591 49.375 32.5714V32.5714Z" fill="black"/>
<circle cx="13.1012" cy="51.6171" r="8.15372" transform="rotate(-180 13.1012 51.6171)" fill="white"/>
</svg>
