<svg width="76" height="76" viewBox="0 0 76 76" fill="none" xmlns="http://www.w3.org/2000/svg">
<path d="M36.1656 0C31.7565 2.97675 27.4576 5.34409 22.7824 7.35981C22.3199 10.1786 22.1402 12.9599 22.1236 15.7337C26.8268 18.2353 31.2485 21.0665 35.6786 23.7911L36.8246 24.4963L36.2663 25.7109C34.2948 30.0245 32.3086 33.3548 28.7438 37.1231L27.9005 38.0179L26.8497 37.3841C21.4859 34.1416 14.7356 31.0978 8.40774 28.6261L9.5181 25.8057C15.5026 28.1433 21.736 31.0524 27.111 34.1666C29.6154 31.3748 31.2306 28.7521 32.7576 25.5807C25.6914 21.2122 18.7471 16.8941 10.8481 14.1146C7.10478 17.4193 4.71472 21.4591 2.39884 25.5982C3.75288 29.737 3.47179 34.263 1.32589 38.1727C9.22823 38.0765 17.2662 38.5347 25.8342 39.8383L26.7546 39.9742L27.0452 40.8573C28.4848 45.1527 28.9631 49.69 28.3994 54.4266L28.2389 55.7954L26.8617 55.765C20.2725 55.6248 13.82 55.418 7.63946 55.803C7.90526 58.3906 7.2637 60.8309 6.38303 63.1122C8.56715 67.7452 10.8368 72.1705 14.2382 76C20.9514 72.9075 26.2046 70.9208 33.0961 69.0439C32.5419 66.8167 31.9708 64.7648 31.291 63.5862C30.4578 62.1414 29.6307 61.4666 28.3874 61.1096C25.9012 60.3953 21.1434 61.4818 13.2767 64.2677L12.2611 61.4116C20.2167 58.5944 25.226 57.0457 29.2245 58.1941C30.7101 58.6207 31.9709 59.4934 32.9765 60.7038C35.3331 59.4656 37.5987 57.9782 39.8171 56.3214C41.8244 48.8669 45.883 43.104 50.655 38.1224C49.4795 35.9276 48.5065 33.7062 47.31 31.5295L46.758 30.5282L47.5713 29.7222C51.3573 25.9674 55.2719 23.2033 59.2621 21.2017L60.6277 23.9153C57.2195 25.6247 53.8766 28.1219 50.5757 31.2451C52.5944 35.1265 54.1972 38.6313 56.9941 41.7686C63.0921 37.3654 69.1848 33.4262 76 29.6035C73.7292 24.6567 70.9012 20.1301 66.8442 16.704C61.6063 18.8761 56.6731 19.527 51.7796 18.6991C49.466 20.8501 46.8843 22.3078 43.8487 22.4875C39.1286 22.7671 33.9683 19.9324 27.7164 13.1253L28.832 12.1034L28.8347 12.0989L28.8357 12.0998L29.9548 11.0749C35.925 17.5753 40.3232 19.6575 43.6709 19.4595C46.6825 19.2809 49.3691 17.0326 52.0781 13.7118C47.3889 8.54794 41.6392 3.98144 36.1658 0.000162246L36.1656 0ZM2.95109 41.3297C1.96534 41.3332 0.98218 41.3456 0 41.3659C0.272141 45.6333 0.896617 49.6917 2.28579 53.3352C9.74892 52.3904 17.4639 52.53 25.2461 52.707C25.4931 49.2541 25.205 45.9392 24.2607 42.7701C16.8548 41.7043 9.8501 41.3042 2.95109 41.3297V41.3297Z" fill="white"/>
</svg>
