<svg width="63" height="63" viewBox="0 0 63 63" fill="none" xmlns="http://www.w3.org/2000/svg">
<rect x="0.475586" y="0.475266" width="62.5247" height="62.5247" rx="5" fill="#3FCBDE"/>
<path opacity="0.3" d="M15.2876 16.7783C15.4393 16.2709 15.9335 15.7302 16.3882 15.5698C16.968 15.3693 17.6862 15.5163 18.1737 15.937C18.49 16.2107 18.7403 16.7783 18.7403 17.2387C18.7403 17.4455 18.7204 17.6725 18.7008 17.7461C18.6679 17.8598 19.0433 18.1933 21.0005 19.8158C22.2852 20.8842 23.412 21.8052 23.5043 21.8721L23.6623 21.9989L25.6457 20.0159L27.629 18.0265L28.0837 18.4872C28.334 18.7408 28.5384 18.9745 28.5384 19.0081C28.5384 19.2284 26.331 22.3062 25.56 23.1742C25.415 23.3346 25.3098 23.4879 25.3227 23.5148C25.336 23.5481 27.4774 25.7779 30.0867 28.4684C32.6964 31.1652 36.2546 34.8437 37.9878 36.6397C39.7272 38.4421 41.9675 40.7523 42.9758 41.7802C44.3528 43.1956 44.8931 43.7965 45.1898 44.2505C45.9147 45.3588 46.7185 46.901 47.0216 47.7756C47.1799 48.2228 47.1928 48.3096 47.1138 48.39C47.0348 48.47 46.9492 48.4569 46.4945 48.2632C45.4733 47.8358 44.2937 47.1817 43.167 46.4208C42.6595 46.0737 41.9612 45.3726 35.5895 38.7767C30.7857 33.809 29.2175 32.1932 25.1256 27.9673L22.9971 25.7775L22.7864 25.9511C21.4884 27.0127 18.6945 28.9953 18.4967 28.9953C18.4572 28.9953 18.2199 28.7885 17.9763 28.5413L17.5282 28.0807L19.5378 26.0846L21.5474 24.0885L19.5707 21.5517L17.5939 19.0148L17.1721 19.035C16.579 19.0683 16.1376 18.9082 15.7552 18.5209C15.3075 18.0666 15.1163 17.3591 15.2876 16.7783Z" fill="black"/>
<rect x="4.64355" y="43.8257" width="14.2691" height="14.2691" fill="white"/>
</svg>
